<svg id="canvas" width="388.286" height="155.200" viewBox="382.497 237.505 388.286 155.200" preserveAspectRatio="xMidYMid meet" class="h-full w-full max-w-4xl text-primary transition-opacity duration-300 opacity-100" xmlns="http://www.w3.org/2000/svg"><g id="canvas-strokes"><path d="M 405.23,241.37 C 404.61 242.60, 404.49 243.97, 403.86 247.74 C 403.23 251.51, 403.01 253.96, 402.08 260.21 C 401.16 266.47, 400.55 270.77, 399.25 279.02 C 397.95 287.27, 397.12 292.26, 395.59 301.47 C 394.06 310.67, 393.09 315.90, 391.61 325.04 C 390.14 334.18, 389.32 339.03, 388.23 347.18 C 387.13 355.33, 386.67 359.33, 386.12 365.80 C 385.58 372.28, 385.45 375.33, 385.51 379.56 C 385.57 383.79, 385.80 384.97, 386.40 386.97 C 387.00 388.97, 387.77 389.17, 388.52 389.58 C 389.27 389.99, 389.87 389.28, 390.14 389.03 C 390.41 388.79, 390.03 388.41, 389.85 388.35 C 389.68 388.28, 389.44 389.11, 389.26 388.72 C 389.08 388.33, 389.21 388.25, 388.96 386.40 C 388.71 384.56, 388.20 383.58, 388.01 379.49 C 387.82 375.39, 387.64 372.35, 388.00 365.93 C 388.36 359.51, 388.79 355.52, 389.81 347.39 C 390.83 339.26, 391.64 334.41, 393.11 325.28 C 394.58 316.15, 395.57 310.93, 397.18 301.74 C 398.78 292.55, 399.68 287.56, 401.13 279.33 C 402.59 271.10, 403.33 266.83, 404.45 260.60 C 405.57 254.37, 406.22 251.97, 406.73 248.17 C 407.23 244.37, 407.28 242.95, 406.98 241.59 C 406.68 240.23, 405.85 240.14, 405.23 241.37" style="stroke: black; fill: black;"/><path d="M 473.00,254.94 C 472.06 255.11, 471.41 255.34, 469.49 256.95 C 467.57 258.55, 466.67 259.87, 463.40 262.97 C 460.13 266.08, 457.85 268.23, 453.16 272.47 C 448.46 276.71, 445.45 279.39, 439.92 284.17 C 434.38 288.94, 431.03 291.66, 425.48 296.35 C 419.93 301.04, 416.77 303.48, 412.19 307.61 C 407.60 311.74, 405.39 313.55, 402.55 317.00 C 399.71 320.45, 398.53 321.93, 397.98 324.86 C 397.44 327.78, 397.84 329.33, 399.82 331.64 C 401.80 333.94, 403.73 334.74, 407.89 336.39 C 412.05 338.03, 414.92 338.66, 420.61 339.85 C 426.30 341.05, 429.83 341.45, 436.35 342.36 C 442.88 343.27, 446.66 343.67, 453.23 344.40 C 459.80 345.12, 463.33 345.45, 469.21 345.98 C 475.08 346.50, 477.86 346.74, 482.61 347.03 C 487.36 347.32, 489.51 347.49, 492.95 347.43 C 496.38 347.38, 497.73 347.17, 499.79 346.76 C 501.85 346.35, 502.61 345.91, 503.27 345.40 C 503.93 344.88, 503.83 344.49, 503.08 344.21 C 502.33 343.92, 501.56 343.97, 499.51 343.96 C 497.47 343.96, 496.23 344.09, 492.87 344.20 C 489.51 344.30, 487.41 344.57, 482.72 344.48 C 478.02 344.39, 475.24 344.20, 469.39 343.75 C 463.54 343.31, 460.01 342.99, 453.47 342.26 C 446.93 341.52, 443.14 341.09, 436.69 340.09 C 430.24 339.08, 426.73 338.55, 421.20 337.23 C 415.67 335.90, 412.87 335.02, 409.05 333.47 C 405.24 331.93, 403.79 331.10, 402.13 329.49 C 400.47 327.88, 400.26 327.59, 400.74 325.41 C 401.22 323.23, 401.95 321.85, 404.52 318.60 C 407.10 315.36, 409.18 313.33, 413.63 309.19 C 418.08 305.04, 421.23 302.55, 426.77 297.87 C 432.30 293.19, 435.67 290.47, 441.29 285.78 C 446.90 281.08, 449.96 278.47, 454.83 274.41 C 459.71 270.35, 462.19 268.41, 465.65 265.47 C 469.10 262.53, 470.42 261.57, 472.12 259.69 C 473.83 257.82, 474.00 257.06, 474.17 256.11 C 474.35 255.16, 473.94 254.77, 473.00 254.94" style="stroke: black; fill: black;"/><path d="M 531.51,244.85 C 530.86 245.36, 530.39 245.58, 529.75 247.71 C 529.11 249.84, 528.92 251.32, 528.32 255.51 C 527.73 259.70, 527.53 262.61, 526.76 268.67 C 525.98 274.73, 525.40 278.69, 524.45 285.82 C 523.50 292.96, 522.86 297.14, 522.00 304.33 C 521.14 311.52, 520.61 315.30, 520.13 321.77 C 519.65 328.25, 519.48 331.39, 519.58 336.69 C 519.69 342.00, 519.79 344.34, 520.65 348.31 C 521.50 352.28, 522.00 354.00, 523.86 356.55 C 525.72 359.11, 527.07 360.14, 529.95 361.07 C 532.83 362.01, 534.57 361.98, 538.26 361.21 C 541.95 360.44, 544.05 359.50, 548.42 357.21 C 552.79 354.92, 555.32 353.34, 560.10 349.77 C 564.89 346.19, 567.62 343.86, 572.33 339.33 C 577.04 334.81, 579.68 331.95, 583.65 327.13 C 587.61 322.31, 589.52 319.59, 592.17 315.24 C 594.83 310.90, 595.96 308.89, 596.93 305.41 C 597.89 301.92, 597.90 300.20, 597.00 297.82 C 596.10 295.43, 594.90 294.31, 592.44 293.48 C 589.97 292.64, 588.01 292.60, 584.67 293.63 C 581.34 294.66, 579.30 295.85, 575.76 298.63 C 572.22 301.42, 570.09 303.46, 566.98 307.57 C 563.86 311.69, 562.11 314.38, 560.20 319.20 C 558.29 324.01, 557.48 326.90, 557.43 331.65 C 557.38 336.40, 557.83 339.04, 559.96 342.97 C 562.10 346.89, 563.99 348.74, 568.11 351.29 C 572.23 353.84, 575.06 354.75, 580.58 355.73 C 586.09 356.71, 589.43 356.75, 595.71 356.19 C 601.98 355.62, 605.61 354.83, 611.95 352.92 C 618.29 351.00, 621.72 349.55, 627.39 346.60 C 633.06 343.65, 635.85 341.71, 640.31 338.17 C 644.77 334.63, 646.71 332.46, 649.69 328.90 C 652.68 325.34, 653.89 323.38, 655.25 320.38 C 656.61 317.37, 656.68 315.70, 656.51 313.89 C 656.34 312.08, 655.47 311.36, 654.40 311.34 C 653.33 311.31, 652.14 311.91, 651.14 313.76 C 650.14 315.62, 649.62 317.41, 649.40 320.62 C 649.18 323.82, 649.57 326.08, 650.04 329.79 C 650.50 333.51, 650.83 335.67, 651.72 339.19 C 652.61 342.70, 653.14 344.60, 654.48 347.38 C 655.81 350.15, 656.77 351.38, 658.41 353.07 C 660.06 354.76, 661.19 355.19, 662.71 355.82 C 664.23 356.45, 664.99 356.36, 666.01 356.24 C 667.03 356.11, 667.50 355.66, 667.80 355.21 C 668.10 354.76, 667.82 354.28, 667.51 353.97 C 667.19 353.67, 666.85 353.93, 666.21 353.68 C 665.57 353.43, 665.28 353.37, 664.30 352.72 C 663.33 352.07, 662.52 351.87, 661.34 350.43 C 660.17 348.99, 659.55 347.96, 658.43 345.51 C 657.31 343.07, 656.51 341.42, 655.74 338.20 C 654.96 334.97, 654.72 332.85, 654.55 329.39 C 654.38 325.94, 654.77 323.83, 654.87 320.91 C 654.98 317.99, 655.12 316.54, 655.07 314.80 C 655.02 313.06, 654.88 312.44, 654.63 312.20 C 654.38 311.96, 654.32 312.25, 653.81 313.59 C 653.29 314.94, 653.29 316.20, 652.05 318.92 C 650.81 321.65, 650.24 323.74, 647.60 327.23 C 644.97 330.72, 643.11 332.90, 638.87 336.39 C 634.63 339.89, 631.91 341.81, 626.40 344.71 C 620.90 347.60, 617.51 349.02, 611.33 350.87 C 605.16 352.71, 601.58 353.44, 595.52 353.93 C 589.45 354.42, 586.22 354.28, 581.02 353.31 C 575.81 352.34, 573.23 351.39, 569.49 349.06 C 565.76 346.74, 564.21 345.16, 562.34 341.68 C 560.47 338.21, 560.07 335.98, 560.16 331.69 C 560.25 327.40, 560.95 324.70, 562.79 320.24 C 564.63 315.79, 566.34 313.19, 569.35 309.42 C 572.37 305.66, 574.55 303.81, 577.87 301.42 C 581.18 299.03, 583.18 298.44, 585.93 297.47 C 588.68 296.50, 589.94 296.34, 591.62 296.59 C 593.30 296.84, 593.87 297.13, 594.34 298.73 C 594.82 300.33, 594.86 301.54, 593.99 304.59 C 593.13 307.63, 592.43 309.74, 590.01 313.96 C 587.58 318.18, 585.73 320.94, 581.88 325.69 C 578.03 330.44, 575.41 333.28, 570.76 337.69 C 566.10 342.09, 563.35 344.36, 558.61 347.72 C 553.88 351.09, 551.29 352.52, 547.08 354.53 C 542.87 356.54, 540.78 357.14, 537.56 357.78 C 534.34 358.43, 533.18 358.39, 530.98 357.74 C 528.78 357.10, 528.07 356.58, 526.54 354.56 C 525.02 352.55, 524.28 351.26, 523.34 347.67 C 522.41 344.08, 522.11 341.77, 521.87 336.62 C 521.64 331.47, 521.74 328.33, 522.16 321.91 C 522.58 315.50, 523.08 311.72, 523.97 304.57 C 524.86 297.41, 525.51 293.23, 526.60 286.13 C 527.68 279.03, 528.35 275.08, 529.41 269.07 C 530.47 263.07, 531.10 260.24, 531.90 256.11 C 532.70 251.98, 533.17 250.62, 533.40 248.43 C 533.62 246.25, 533.39 245.91, 533.01 245.19 C 532.63 244.48, 532.17 244.35, 531.51 244.85" style="stroke: black; fill: black;"/><path d="M 660.75,271.69 C 661.39 271.36, 661.56 270.81, 661.33 270.84 C 661.10 270.88, 659.99 271.59, 659.58 271.88 C 659.18 272.17, 659.23 272.63, 659.31 272.28 C 659.40 271.93, 660.13 270.55, 660.02 270.14 C 659.90 269.72, 659.31 269.83, 658.73 270.20 C 658.16 270.58, 657.26 271.54, 657.15 272.01 C 657.03 272.47, 657.44 272.58, 658.16 272.52 C 658.88 272.45, 660.12 272.03, 660.75 271.69" style="stroke: black; fill: black;"/><path d="M 703.02,307.22 C 702.44 307.98, 702.27 308.88, 701.94 310.97 C 701.61 313.05, 701.51 314.49, 701.36 317.66 C 701.22 320.83, 701.35 323.06, 701.22 326.81 C 701.09 330.56, 700.98 332.82, 700.73 336.39 C 700.48 339.97, 700.04 341.85, 699.99 344.68 C 699.94 347.51, 699.95 348.84, 700.47 350.54 C 700.98 352.25, 701.45 352.97, 702.58 353.21 C 703.71 353.45, 704.66 353.30, 706.13 351.74 C 707.60 350.18, 708.11 348.65, 709.94 345.42 C 711.78 342.19, 712.70 339.74, 715.32 335.59 C 717.93 331.44, 719.69 328.75, 723.02 324.66 C 726.35 320.56, 728.42 318.27, 731.99 315.11 C 735.55 311.95, 737.58 310.58, 740.84 308.88 C 744.10 307.17, 745.72 306.83, 748.28 306.59 C 750.84 306.35, 751.79 306.54, 753.64 307.68 C 755.50 308.81, 756.20 309.73, 757.56 312.27 C 758.92 314.81, 759.57 316.57, 760.45 320.37 C 761.33 324.16, 761.54 326.69, 761.96 331.24 C 762.39 335.80, 762.33 338.53, 762.59 343.13 C 762.84 347.73, 762.91 350.32, 763.24 354.25 C 763.56 358.18, 763.62 360.09, 764.21 362.76 C 764.81 365.43, 765.54 366.68, 766.22 367.58 C 766.90 368.49, 767.34 368.36, 767.61 367.30 C 767.89 366.23, 767.79 364.92, 767.59 362.25 C 767.39 359.58, 766.99 357.81, 766.61 353.94 C 766.24 350.08, 765.99 347.54, 765.71 342.94 C 765.42 338.35, 765.53 335.64, 765.17 330.97 C 764.80 326.30, 764.75 323.72, 763.90 319.61 C 763.05 315.50, 762.60 313.41, 760.91 310.42 C 759.21 307.42, 758.01 306.10, 755.42 304.64 C 752.82 303.18, 751.15 302.81, 747.95 303.12 C 744.74 303.43, 742.96 304.21, 739.39 306.19 C 735.83 308.17, 733.84 309.69, 730.12 313.02 C 726.41 316.34, 724.34 318.69, 720.82 322.83 C 717.30 326.97, 715.46 329.64, 712.53 333.71 C 709.61 337.79, 708.13 340.03, 706.19 343.20 C 704.25 346.38, 703.53 347.80, 702.83 349.59 C 702.12 351.38, 702.50 351.98, 702.66 352.14 C 702.82 352.31, 703.26 351.86, 703.65 350.41 C 704.04 348.97, 704.37 347.68, 704.60 344.92 C 704.83 342.16, 704.63 340.21, 704.82 336.64 C 705.00 333.06, 705.23 330.80, 705.51 327.05 C 705.80 323.29, 706.13 321.06, 706.24 317.86 C 706.36 314.65, 706.36 313.15, 706.09 311.02 C 705.81 308.89, 705.47 307.95, 704.85 307.19 C 704.24 306.43, 703.61 306.47, 703.02 307.22" style="stroke: black; fill: black;"/></g></svg>